/* XPM */
static const char * multisurfaceraytracer_xpm[] = {
"35 32 667 2",
"  	c #F3F3F3",
". 	c #F2F3F2",
"+ 	c #EEF1EF",
"@ 	c #EBF0EE",
"# 	c #EBF0EC",
"$ 	c #E9EFEB",
"% 	c #EBF0ED",
"& 	c #E3EDE5",
"* 	c #E4EDE6",
"= 	c #E4ECE6",
"- 	c #EEF1EE",
"; 	c #EEF2EE",
"> 	c #ECF1ED",
", 	c #BFE2D3",
"' 	c #D2E5DC",
") 	c #BFD9C7",
"! 	c #C6E2D3",
"~ 	c #C3DFCF",
"{ 	c #B0D5C2",
"] 	c #B1D4C7",
"^ 	c #B9DDCC",
"/ 	c #C6E1D6",
"( 	c #EBEFEB",
"_ 	c #EFF2EF",
": 	c #E4F1E5",
"< 	c #E4F2E6",
"[ 	c #E0EFE7",
"} 	c #CBEBDD",
"| 	c #B2CEBE",
"1 	c #DAEFDC",
"2 	c #AED7CA",
"3 	c #A9C8B5",
"4 	c #AFD4C7",
"5 	c #AFDACA",
"6 	c #ACD2C6",
"7 	c #B3D8CA",
"8 	c #D1E6D6",
"9 	c #D8EBDF",
"0 	c #D4EBE0",
"a 	c #D3ECD7",
"b 	c #DCF1DE",
"c 	c #E4F0E6",
"d 	c #B5E3D1",
"e 	c #ADD0BF",
"f 	c #D9EBDE",
"g 	c #A8D8CA",
"h 	c #ABD3C3",
"i 	c #ABD9CB",
"j 	c #A7DACA",
"k 	c #ADDACA",
"l 	c #A9D3C7",
"m 	c #A5C4B4",
"n 	c #CAE5D6",
"o 	c #EDF1EE",
"p 	c #F0F3F0",
"q 	c #E7F0EA",
"r 	c #ADD3C6",
"s 	c #C5E9D3",
"t 	c #DBF1DC",
"u 	c #DDF1E0",
"v 	c #B4DCCD",
"w 	c #A8D7CA",
"x 	c #AEDBCE",
"y 	c #A7DBCC",
"z 	c #BADECC",
"A 	c #AEE0CD",
"B 	c #A6DCD0",
"C 	c #A8D7CB",
"D 	c #A2C4B0",
"E 	c #A6C4B4",
"F 	c #C5E1D1",
"G 	c #B1DCCB",
"H 	c #D9E9E1",
"I 	c #EEF3EE",
"J 	c #F1F3F1",
"K 	c #E7F2E8",
"L 	c #ECF2EC",
"M 	c #EDF2ED",
"N 	c #B7D8CA",
"O 	c #ACE1CF",
"P 	c #DCEEDD",
"Q 	c #D9EDDC",
"R 	c #C4E3D5",
"S 	c #A6CFBF",
"T 	c #9FCCBB",
"U 	c #B8DCCD",
"V 	c #B2DFD0",
"W 	c #B2E0D0",
"X 	c #B1DCCC",
"Y 	c #A8D5CB",
"Z 	c #A1BA9F",
"` 	c #AED6C6",
" .	c #ACE3CD",
"..	c #AEDECE",
"+.	c #CBE9D6",
"@.	c #DAEEDD",
"#.	c #C0DCCF",
"$.	c #EBF3EC",
"%.	c #E4F3E5",
"&.	c #E9F1E9",
"*.	c #C1E2D3",
"=.	c #BBDECD",
"-.	c #D6EBD9",
";.	c #D9E9DB",
">.	c #B6DFD0",
",.	c #9BC7B2",
"'.	c #A6C7B6",
").	c #ABD8CA",
"!.	c #AAD3C7",
"~.	c #C4DFD1",
"{.	c #BFE1D4",
"].	c #A9D1C7",
"^.	c #A3C9B1",
"/.	c #A9DDC9",
"(.	c #AAD7CB",
"_.	c #BADED2",
":.	c #CDEAD7",
"<.	c #D4EFDA",
"[.	c #C1E4D5",
"}.	c #E9EEEB",
"|.	c #F1F2F1",
"1.	c #E0F3E0",
"2.	c #C5E3D3",
"3.	c #B6D9CA",
"4.	c #C8DFD1",
"5.	c #C8E3D4",
"6.	c #A5DECE",
"7.	c #A1CBB0",
"8.	c #AAD2C5",
"9.	c #A6CBBF",
"0.	c #A7D6C9",
"a.	c #A7DCCE",
"b.	c #A8DACC",
"c.	c #A8CFC3",
"d.	c #A3D2BD",
"e.	c #A3EDDB",
"f.	c #A9D4CA",
"g.	c #B3DCCB",
"h.	c #D0EDD8",
"i.	c #DBF2DE",
"j.	c #B8E1D1",
"k.	c #D0E9DD",
"l.	c #EFF3EF",
"m.	c #EAF2EA",
"n.	c #EDF3ED",
"o.	c #ECF3EC",
"p.	c #E7F2E7",
"q.	c #D6EAD9",
"r.	c #B8D1C8",
"s.	c #B3D3C7",
"t.	c #DAF0DC",
"u.	c #B8DCCC",
"v.	c #8FB294",
"w.	c #A1C4AD",
"x.	c #9BB595",
"y.	c #9AAA87",
"z.	c #97B994",
"A.	c #96C09B",
"B.	c #A1BA91",
"C.	c #99BF9A",
"D.	c #96C5A0",
"E.	c #A6D9C7",
"F.	c #ACD7CE",
"G.	c #A7DBCD",
"H.	c #CFE9D4",
"I.	c #DBF0DE",
"J.	c #ABDFCF",
"K.	c #CFE9DB",
"L.	c #EBF2EB",
"M.	c #DAEBE1",
"N.	c #C7E1D2",
"O.	c #BADCCF",
"P.	c #B9D2C9",
"Q.	c #C5E5D4",
"R.	c #9ABCA5",
"S.	c #A1C5B8",
"T.	c #93AE99",
"U.	c #9EC8B4",
"V.	c #A8D5C4",
"W.	c #A7D9CE",
"X.	c #A7D9CA",
"Y.	c #A2D6C5",
"Z.	c #A0C5AC",
"`.	c #B1D8C6",
" +	c #D5EAD9",
".+	c #B8DFD0",
"++	c #BCD9C9",
"@+	c #B9E5D3",
"#+	c #B1E1D4",
"$+	c #D7E7DD",
"%+	c #F2F2F2",
"&+	c #CEE6D7",
"*+	c #B8E0D3",
"=+	c #C2E1D1",
"-+	c #B9D8C9",
";+	c #ABD7C6",
">+	c #9BB9A6",
",+	c #A8C9B7",
"'+	c #9AC0A9",
")+	c #A2D0B9",
"!+	c #A9D5C6",
"~+	c #ABD6C6",
"{+	c #AAD2C6",
"]+	c #A9D4C7",
"^+	c #A7DBC9",
"/+	c #A5D9C6",
"(+	c #A5E1C6",
"_+	c #ABD2C5",
":+	c #AECFC3",
"<+	c #ABD0BB",
"[+	c #A8D7C8",
"}+	c #D4E8DA",
"|+	c #E6F3E6",
"1+	c #DBEFE0",
"2+	c #E6F0E8",
"3+	c #BFDFD0",
"4+	c #D7EADA",
"5+	c #C1E1D0",
"6+	c #A8D9CB",
"7+	c #93B5A0",
"8+	c #AACFC1",
"9+	c #98B298",
"0+	c #A9D3C8",
"a+	c #A1CAB1",
"b+	c #AACFBC",
"c+	c #BFDDCD",
"d+	c #B1D6C9",
"e+	c #AAD4C8",
"f+	c #A4CCB5",
"g+	c #9EC3A4",
"h+	c #A5CBB8",
"i+	c #ABD9C9",
"j+	c #A8D5C0",
"k+	c #ABCEC2",
"l+	c #B0D6C9",
"m+	c #DAE7DE",
"n+	c #EAF1EB",
"o+	c #EFF1EF",
"p+	c #C1DCCF",
"q+	c #DBECDC",
"r+	c #B8DBCA",
"s+	c #AFD7C9",
"t+	c #AED8CC",
"u+	c #A5CDBE",
"v+	c #9ABBA7",
"w+	c #A3B497",
"x+	c #A3BAA2",
"y+	c #A9DCCE",
"z+	c #A8CFBD",
"A+	c #9AB492",
"B+	c #A4CABD",
"C+	c #A7C1A6",
"D+	c #A1B792",
"E+	c #A0C6A9",
"F+	c #9CBFA1",
"G+	c #A1AA8B",
"H+	c #A5CCBA",
"I+	c #A8D6C4",
"J+	c #A4DDC5",
"K+	c #BAD7CA",
"L+	c #BCE0D1",
"M+	c #C1E2D4",
"N+	c #E6EEE8",
"O+	c #E9F2E9",
"P+	c #E5EFE5",
"Q+	c #C0DFD2",
"R+	c #B3CBC2",
"S+	c #BEE4D0",
"T+	c #A9DCCB",
"U+	c #A3D6C3",
"V+	c #A4DBC2",
"W+	c #92AF89",
"X+	c #95B490",
"Y+	c #A7BA9F",
"Z+	c #AACEC8",
"`+	c #BFD8CC",
" @	c #D5E9D9",
".@	c #A6C6AC",
"+@	c #A5B190",
"@@	c #A2C9B0",
"#@	c #A7D9CD",
"$@	c #A1C6A2",
"%@	c #A3C19D",
"&@	c #A8C8BB",
"*@	c #9CBCA4",
"=@	c #A7D9C7",
"-@	c #A4CEBF",
";@	c #BBD7C9",
">@	c #D1E8DB",
",@	c #CEE8D7",
"'@	c #E0EEE2",
")@	c #DCEBDE",
"!@	c #DCE8DF",
"~@	c #AED5C8",
"{@	c #C0DBCD",
"]@	c #A9D2C8",
"^@	c #9DDEC7",
"/@	c #A3D5C2",
"(@	c #A2BA88",
"_@	c #7A9C83",
":@	c #9DCDBC",
"<@	c #A8D6CA",
"[@	c #AAD1C6",
"}@	c #B2CDC3",
"|@	c #BEDBCD",
"1@	c #B4D8C9",
"2@	c #D2E8D6",
"3@	c #C4E6D5",
"4@	c #A4E5D4",
"5@	c #A1CA8E",
"6@	c #A1D4B1",
"7@	c #A9D5C9",
"8@	c #9CC4AA",
"9@	c #A4CAB5",
"0@	c #A3C6AE",
"a@	c #C3E5D3",
"b@	c #D6EDDB",
"c@	c #E3F1E5",
"d@	c #F0F2F0",
"e@	c #EBF2EC",
"f@	c #E4F0E5",
"g@	c #D3EADC",
"h@	c #BDDED0",
"i@	c #9EC1B2",
"j@	c #A8CBBF",
"k@	c #A6E0CF",
"l@	c #98C4A8",
"m@	c #A2AC75",
"n@	c #9EAD84",
"o@	c #95996F",
"p@	c #99CEBB",
"q@	c #A6DDCF",
"r@	c #A8D8C7",
"s@	c #AFD7CA",
"t@	c #A9D4C3",
"u@	c #ABCFC2",
"v@	c #B6D9C9",
"w@	c #BCDDD1",
"x@	c #A3ECCE",
"y@	c #A3DBAB",
"z@	c #A1E3C9",
"A@	c #ACD8CB",
"B@	c #99C0A8",
"C@	c #9DBAA5",
"D@	c #BCDCCD",
"E@	c #C3E5D7",
"F@	c #C9E9D4",
"G@	c #DDF0DE",
"H@	c #E9F1EA",
"I@	c #D6ECDB",
"J@	c #CEECD5",
"K@	c #C3E1D5",
"L@	c #D2E8DD",
"M@	c #B9E0C8",
"N@	c #9CAB98",
"O@	c #9ABEAC",
"P@	c #A1D6B8",
"Q@	c #85AC82",
"R@	c #9CB49B",
"S@	c #A39159",
"T@	c #8D9F84",
"U@	c #83A784",
"V@	c #9ED2BC",
"W@	c #A9D4C9",
"X@	c #B4DDCC",
"Y@	c #A8D6C3",
"Z@	c #AAD3C9",
"`@	c #BEDACC",
" #	c #CDE4D7",
".#	c #A7E5C2",
"+#	c #A2E9BD",
"@#	c #A3EAD7",
"##	c #A8D4C4",
"$#	c #99B78F",
"%#	c #B8D1BE",
"&#	c #C2E3D5",
"*#	c #C9E6D3",
"=#	c #EBF1EC",
"-#	c #ECF0ED",
";#	c #DEEEE5",
">#	c #CAE6D6",
",#	c #A9D7C9",
"'#	c #AADCCE",
")#	c #8DAB89",
"!#	c #869375",
"~#	c #8EC29F",
"{#	c #92B17C",
"]#	c #999D68",
"^#	c #83764C",
"/#	c #988E5E",
"(#	c #A9A778",
"_#	c #8C9F78",
":#	c #88AE87",
"<#	c #9CD6C1",
"[#	c #A6D9CA",
"}#	c #AAD0C0",
"|#	c #ABCCC3",
"1#	c #C5DED3",
"2#	c #D6ECDC",
"3#	c #A4C29A",
"4#	c #A4EABD",
"5#	c #A4E2CF",
"6#	c #9EC7AE",
"7#	c #9EAE79",
"8#	c #E5F1E6",
"9#	c #D5EADE",
"0#	c #D4EBD9",
"a#	c #B2DACB",
"b#	c #A7D8CB",
"c#	c #A4D4C3",
"d#	c #99B691",
"e#	c #766145",
"f#	c #7A8262",
"g#	c #8A875D",
"h#	c #798556",
"i#	c #7A8154",
"j#	c #828F69",
"k#	c #97BF9D",
"l#	c #92A17D",
"m#	c #98BFA3",
"n#	c #A2DECA",
"o#	c #8AA284",
"p#	c #92A17B",
"q#	c #A6D1C2",
"r#	c #A9D2C5",
"s#	c #B7D6C9",
"t#	c #C8E7D4",
"u#	c #A0AC7C",
"v#	c #A2D68D",
"w#	c #A3C293",
"x#	c #A1A971",
"y#	c #A8BE9B",
"z#	c #E3F0E4",
"A#	c #E0ECE2",
"B#	c #E4EEE7",
"C#	c #DBEADF",
"D#	c #CBE7DA",
"E#	c #A2CAB0",
"F#	c #A7D4C8",
"G#	c #8A8466",
"H#	c #676448",
"I#	c #8E6543",
"J#	c #A68053",
"K#	c #908352",
"L#	c #8A8A60",
"M#	c #928659",
"N#	c #8C8C64",
"O#	c #8E9E72",
"P#	c #A1C9B9",
"Q#	c #A2B596",
"R#	c #9CB79D",
"S#	c #A0CBB8",
"T#	c #A6CBBD",
"U#	c #AAD0C6",
"V#	c #ABD0BE",
"W#	c #A7D1BA",
"X#	c #ACB170",
"Y#	c #D0EC7D",
"Z#	c #B6C176",
"`#	c #9EB595",
" $	c #BAD8C8",
".$	c #D7E9DB",
"+$	c #E2F1E2",
"@$	c #B8DFC8",
"#$	c #9EAD79",
"$$	c #969C6F",
"%$	c #817047",
"&$	c #675A41",
"*$	c #956845",
"=$	c #94754D",
"-$	c #887552",
";$	c #8F6844",
">$	c #8C593A",
",$	c #7E5E41",
"'$	c #707C58",
")$	c #9FDBCC",
"!$	c #A4C1AB",
"~$	c #A0A26B",
"{$	c #9CC2AC",
"]$	c #A8DACD",
"^$	c #AAD1C4",
"/$	c #A9D0C1",
"($	c #AED3C2",
"_$	c #9BA881",
":$	c #A0A671",
"<$	c #A2D1A0",
"[$	c #A4CDB9",
"}$	c #ACD4C9",
"|$	c #BBDACA",
"1$	c #DCECDF",
"2$	c #E2F2E3",
"3$	c #B5D9C8",
"4$	c #B3AC6C",
"5$	c #9C966A",
"6$	c #8D764F",
"7$	c #796B43",
"8$	c #5A5A41",
"9$	c #8F885B",
"0$	c #9C9A63",
"a$	c #9D9B68",
"b$	c #A38B57",
"c$	c #8D6940",
"d$	c #826641",
"e$	c #7A7A48",
"f$	c #97CEA9",
"g$	c #93A177",
"h$	c #88835B",
"i$	c #9FB68F",
"j$	c #A0CFB8",
"k$	c #A2DACB",
"l$	c #A0C1AE",
"m$	c #8D8F70",
"n$	c #96A990",
"o$	c #A1EBD0",
"p$	c #A4E7D5",
"q$	c #ADDBCD",
"r$	c #C5E6D3",
"s$	c #E3F0E3",
"t$	c #DCF0DF",
"u$	c #E2F0E4",
"v$	c #CAE2CF",
"w$	c #92926B",
"x$	c #87724F",
"y$	c #896444",
"z$	c #6E6341",
"A$	c #7E906D",
"B$	c #A1A56D",
"C$	c #96A772",
"D$	c #A37C4E",
"E$	c #966C45",
"F$	c #955E42",
"G$	c #A07548",
"H$	c #8D8342",
"I$	c #AEB473",
"J$	c #85956F",
"K$	c #95AE90",
"L$	c #A5AE87",
"M$	c #9F9568",
"N$	c #9A895D",
"O$	c #939777",
"P$	c #AFCFBD",
"Q$	c #AEDFCB",
"R$	c #A5EAD1",
"S$	c #BBE7D3",
"T$	c #BBEAD2",
"U$	c #C8F1D6",
"V$	c #D0EAD6",
"W$	c #D5EDDB",
"X$	c #DDEDE3",
"Y$	c #ABC5B0",
"Z$	c #918E62",
"`$	c #906B48",
" %	c #8D6B47",
".%	c #8C9063",
"+%	c #939C6A",
"@%	c #8B6B47",
"#%	c #B36741",
"$%	c #A46544",
"%%	c #936042",
"&%	c #916947",
"*%	c #928652",
"=%	c #A3BA9B",
"-%	c #A3D8C8",
";%	c #AFD5C9",
">%	c #B3DDCD",
",%	c #C8E1D3",
"'%	c #B7D4BE",
")%	c #C4DCD5",
"!%	c #C3DFD1",
"~%	c #BBE2CF",
"{%	c #DFF2E2",
"]%	c #E8F2E8",
"^%	c #E8F3E8",
"/%	c #ECF2ED",
"(%	c #E1EEE4",
"_%	c #A2C2AA",
":%	c #9E7B52",
"<%	c #9B6F4B",
"[%	c #889B72",
"}%	c #87846A",
"|%	c #866A46",
"1%	c #806043",
"2%	c #966543",
"3%	c #986545",
"4%	c #725C45",
"5%	c #786144",
"6%	c #6F8F74",
"7%	c #9ED3C5",
"8%	c #A5E2D2",
"9%	c #CBECD4",
"0%	c #D6EED9",
"a%	c #D6EBDC",
"b%	c #E2F0E2",
"c%	c #E2EEE5",
"d%	c #D1EAD8",
"e%	c #D6E8E1",
"f%	c #AEC7B0",
"g%	c #99A485",
"h%	c #A8C9B4",
"i%	c #ACC7B5",
"j%	c #A4815A",
"k%	c #9C714B",
"l%	c #9A6C47",
"m%	c #7A6347",
"n%	c #7F7B4F",
"o%	c #807C5B",
"p%	c #88AB95",
"q%	c #A4E0CE",
"r%	c #A5E3D5",
"s%	c #A8E1D0",
"t%	c #C6E9D2",
"u%	c #E8F0E8",
"v%	c #EDF1ED",
"w%	c #E3F2E3",
"x%	c #EAF4EA",
"y%	c #DBEAE0",
"z%	c #B1D3C8",
"A%	c #A8D8CC",
"B%	c #A5C7B4",
"C%	c #879974",
"D%	c #96A57F",
"E%	c #98A888",
"F%	c #919770",
"G%	c #97B39E",
"H%	c #CEE2D6",
"I%	c #BBE1D3",
"J%	c #A5E4D0",
"K%	c #C7DED1",
"L%	c #D4EFD9",
"M%	c #C0E2D1",
"N%	c #E3F2E4",
"O%	c #E8EEEA",
"P%	c #BFDCD0",
"Q%	c #AFE5D5",
"R%	c #B6D6C9",
"S%	c #A4D7C5",
"T%	c #A7D8CA",
"U%	c #A9D1BE",
"V%	c #D7EBDB",
"W%	c #D8E9E0",
"X%	c #AED9C9",
"Y%	c #A5DFD1",
"Z%	c #ADD7CB",
"`%	c #B0E0CD",
" &	c #E0ECE4",
".&	c #DBEFDF",
"+&	c #BDE3D1",
"@&	c #AFD4C8",
"#&	c #A8D1BF",
"$&	c #ABDECD",
"%&	c #CEE7DD",
"&&	c #DDF1DF",
"*&	c #B7E8D5",
"=&	c #C8E4D9",
"-&	c #A9D8CB",
";&	c #BBDBCF",
">&	c #DBEFDE",
",&	c #EBF0EB",
"'&	c #BDD9C9",
")&	c #B2DACD",
"!&	c #C1E4D4",
"~&	c #D6ECDF",
"{&	c #EAEEEB",
"]&	c #D4EADE",
"^&	c #E6F2E7",
"/&	c #E9F0EA",
"(&	c #E2EFE7",
"                                                                      ",
"                              . + @ # $ % & * = -                     ",
"                            ; > , ' ) ! ~ { ] ^ / (                   ",
"                          _ : < [ } | 1 2 3 4 5 6 7 8 9               ",
"                          0 a b c d e f g h i j k l m n o             ",
"                  p   . q r s t u v w x y z A B C D E F G H I o       ",
"                  J K L M N O P Q R S T U V W X Y Z `  ...+.@.#.      ",
"                  $.%.L &.*.=.-.;.>.,.'.).!.~.{.].^./.(._.:.<.[.}.    ",
"              |..   1._ _ 2.3.4.5.6.7.8.9.0.a.b.c.d.e.f.g.h.i.j.k.    ",
"            l.m.n.o.M p.q.r.s.t.u.v.w.x.y.z.A.B.C.D.E.F.G.H.I.J.K.    ",
"          . . p o.o.L.M.N.O.P.Q.R.S.T.U.V.g W.X.Y.Z.`. +.+++@+#+$+%+  ",
"            J l.L _ o.&+*+=+-+;+>+,+'+)+!+~+{+]+^+/+(+_+:+<+[+}+L     ",
"                |+1+2+3+4+5+6+7+8+9+0+a+b+c+d+e+f+g+h+i+!+j+k+l+m+n+  ",
"        o+-     %.p+q+r+s+t+u+v+w+x+y+z+A+B+C+D+E+F+G+H+I+J+K+L+M+N+  ",
"        O+P+O+L Q+R+S+T+U+V+W+X+Y+Z+`+ @.@+@@@#@$@%@&@*@=@-@;@>@,@J   ",
"      p ; '@)@!@~@{@]@^@/@(@_@:@<@[@}@|@1@2@3@4@5@6@7@8@9@0@a@b@c@d@  ",
"    e@f@J g@h@i@j@k@l@m@n@o@p@q@r@s@t@u@0+v@w@x@y@z@A@B@C@D@E@F@G@H@  ",
"    I@J@K@L@M@N@O@P@Q@R@S@T@U@V@W@X@Y@Z@l `@ #.#+#@###$#%#&#*#=#_ -#  ",
"    ;#>#,#'#)#!#~#{#]#^#/#(#_#:#<#[#}#|#<@1#2#3#4#5#6#7#}+8#9#0#n.    ",
"  _ a#b#c#d#e#f#g#h#i#j#k#l#m#n#8@o#p#q#r#s#t#u#v#w#x#y#z#A#. B#C#.   ",
"  M D#E#F#G#H#I#J#K#L#M#N#O#P#<@Q#R#S#T#U#V#W#X#Y#Z#`# $.$+$J .   J   ",
"  ; @$#$$$%$&$*$=$-$;$>$,$'$)$!$~${$]$^$/$($_$:$<$[$}$|$1$2$p J J     ",
". 3$4$5$6$7$8$9$0$a$b$c$d$e$f$g$h$i$j$k$l$m$n$o$p$q$r$s$t$u$          ",
". v$w$x$y$z$A$B$C$D$E$F$G$H$I$J$K$L$M$N$O$P$Q$R$S$T$U$V$W$L           ",
"  X$Y$Z$`$ %.%+%@%#%$%%%&%*%=%-%;%>%,%'%)%!%~%{%]%|+^%I /%            ",
"  (%_%:%<%[%}%|%1%2%3%4%5%6%7%8%9%0%a%b%f@c%d%p . ; .                 ",
"    e%f%g%h%i%j%k%l%m%n%o%p%q%r%s%t%u%O+v%w%x%J n.I .                 ",
"      y%z%[@A%B%C%D%E%F%G%H%I%w J%K%L%M%B#N%n.p . J                   ",
"      . O%P%Q%R%S%[+T%U%V%M W%X%Y%Z%`%W%/% &. .                       ",
"        . m..&+&@&#&$&%&  . &&*&=&-&;&. >&.                           ",
"            J ,&'&)&!&# .   J ~&{&]&;   ^&l.                          ",
"                {&/&(&p               J .                             "};
