/* XPM */
static const char * probtractvis_xpm[] = {
"32 32 129 2",
"  	c None",
". 	c #FFFFFF",
"+ 	c #D0D0D0",
"@ 	c #EAEAEA",
"# 	c #DBDBDB",
"$ 	c #F9F9F9",
"% 	c #7000A7",
"& 	c #F6F0F9",
"* 	c #B77FD2",
"= 	c #892EB6",
"- 	c #760BAA",
"; 	c #892DB6",
"> 	c #B67DD2",
", 	c #F6EFF9",
"' 	c #F0F0F0",
") 	c #C6B4CF",
"! 	c #7B18AB",
"~ 	c #801EB1",
"{ 	c #E8D6F0",
"] 	c #FDFDFD",
"^ 	c #DADADA",
"/ 	c #FBFBFB",
"( 	c #F3F3F3",
"_ 	c #D0CBD2",
": 	c #8223B1",
"< 	c #872CB4",
"[ 	c #B798C7",
"} 	c #ECE7EF",
"| 	c #F8F4FB",
"1 	c #D7B9E6",
"2 	c #8A30B7",
"3 	c #8425B3",
"4 	c #F9F5FB",
"5 	c #F2F2F2",
"6 	c #E2E2E2",
"7 	c #DDDDDD",
"8 	c #B786CF",
"9 	c #8629B5",
"0 	c #F8F3FA",
"a 	c #EDEDED",
"b 	c #8628B4",
"c 	c #C191D9",
"d 	c #E1E1E1",
"e 	c #D3D3D3",
"f 	c #913DBB",
"g 	c #CEA8E0",
"h 	c #CDA7E0",
"i 	c #933FBC",
"j 	c #7A11AD",
"k 	c #F2E9F7",
"l 	c #FEFEFE",
"m 	c #F1E7F6",
"n 	c #7A13AD",
"o 	c #EEEEEE",
"p 	c #7203A8",
"q 	c #FCFBFD",
"r 	c #FAFAFA",
"s 	c #FCFAFD",
"t 	c #7204A8",
"u 	c #7810AB",
"v 	c #DCDCDC",
"w 	c #F2E8F7",
"x 	c #8833B1",
"y 	c #CCA6DF",
"z 	c #D4D4D4",
"A 	c #7F22AD",
"B 	c #D2CDD4",
"C 	c #872AB5",
"D 	c #8424B3",
"E 	c #8C32B8",
"F 	c #D8BBE7",
"G 	c #801DB1",
"H 	c #B67ED2",
"I 	c #750AAA",
"J 	c #882CB6",
"K 	c #7306A9",
"L 	c #7F1BB0",
"M 	c #9747BF",
"N 	c #F7F2FA",
"O 	c #7E19AF",
"P 	c #E1CBED",
"Q 	c #D7D4D8",
"R 	c #C4B6CB",
"S 	c #B288C7",
"T 	c #8325B2",
"U 	c #7C16AE",
"V 	c #F4ECF8",
"W 	c #D2CED5",
"X 	c #7E1EAD",
"Y 	c #D6B7E6",
"Z 	c #B596C4",
"` 	c #882DB5",
" .	c #CCC7CE",
"..	c #F4F4F4",
"+.	c #EFEFEF",
"@.	c #F8F8F8",
"#.	c #D5D0D7",
"$.	c #862AB3",
"%.	c #B780D3",
"&.	c #B988D1",
"*.	c #8426B3",
"=.	c #CFCAD1",
"-.	c #D3CDD5",
";.	c #8425B2",
">.	c #DEDEDE",
",.	c #F6F6F6",
"'.	c #B490C6",
").	c #8E37B9",
"!.	c #923EBC",
"~.	c #F3EAF7",
"{.	c #7911AC",
"].	c #7A12AD",
"^.	c #B48FC6",
"/.	c #8F38BA",
"(.	c #8529B2",
"_.	c #B881D3",
":.	c #8527B3",
"<.	c #CFCAD2",
"[.	c #F1F1F1",
"}.	c #D5D2D6",
"|.	c #AF86C4",
"1.	c #8224B1",
"2.	c #7D1DAC",
"3.	c #892FB5",
"4.	c #B698C5",
"5.	c #7509AA",
"6.	c #7F1CB0",
"7.	c #994AC0",
"8.	c #C496DA",
". . . . . . . . . . . . . . . . . . . . . . . . . . . . . . . . ",
". . . . . . . . . . . . . . . . . . . . . . . . . . . . . . . . ",
". . . . . . . . . . . . . . . . . . . . . . . . . . . . . . . . ",
". . . . . . . . . . . . . . . . . . . . . . . . . . . . . . . . ",
". . % % % % % % % % % % % % . . & * = - - ; > , . . . . . . . . ",
". . % % % % % % % % % % % % . ) ! % % % % % % ~ { . . . . . . . ",
". . . . . . . % % . . . . . . : % < [ } | 1 2 % 3 4 . . . . . . ",
". . . . . . . % % . . . . . 8 % 9 0 a 7 . . 0 b % c . . . . . . ",
". . . . . . . % % . . . . . f % g . . . . . . h % i . . . . . . ",
". . . . . . . % % . . . . . j % k . . . . . . m % n . . . . . . ",
". . . . . . . % % . . . . . p % q . . . . . . s % t . . . . . . ",
". . . . . . . % % . . . . . u % k . . . . . . w % n . . . . . . ",
". . . . . . . % % . . . . . x % y 5 . . . . . h % i . . . . . . ",
". . . . . . . % % . . . . . 8 % A B . . . . | C % c . . . . . . ",
". . . . . . . % % . . . . . | D % E 1 | 4 F E % 3 4 . . . . . . ",
". . . . . . . % % . . . . . . { G % % % % % % G { . . . . . . . ",
". . . . . . . % % . . . . . . . , H ; I I J > , . . . . . . . . ",
". . . . . . . . . . . . . . . . . . . . . . . . . . . . . . . . ",
". . . . % % % % K L M c N . . . . . . & * = - - ; > , . . . . . ",
". . . . % % % % % % % % O P . . . . { ~ % % % % % % ~ { . . . . ",
". . . . % % . 5 Q R S T % U V . . W X % < Y 0 | Z ` % X . . ' . ",
". . . . % % ..e +.] @.#.$.% %.( . &.% *.=.( . . + -.;.% c . . . ",
". . . . % % >.a . . . ,.'.% ).7 . !.% g a 7 . . + ( h % i . . . ",
". . . . % % z / . . . . ~.% {.e . ].% k / e . . + ] m % n . . . ",
". . . . % % + l . . . . q % t + . t % q l + . . + . s % t . . . ",
". . . . % % e / . . . . k % ].e . ].% k r e . . + . w % n . . . ",
". . . . % % 7 o . . . @.^.% /.7 . !.% g a v . . + . h % i . . . ",
". . . . % % ( z 5 ] ,.#.(.% _.5 . &.% :.<.( . . + | C % c . . . ",
". . . . % % . [.}.R |.1.% U V . . B 2.% 3.1 | 4 4.E % 3 4 . . . ",
". . . . % % % % % % % % ~ P . . . . { G % % % % % % G { . . . . ",
". . . . % % % % 5.6.7.8.0 . . . . . . , H ; I I J > , . . . . . ",
". . . . . . . . . . . . . . . . . . . . . . . . . . . . . . . . "};
