/* XPM */
static const char * probtractcontext_xpm[] = {
"32 32 117 2",
"  	c None",
". 	c #FFFFFF",
"+ 	c #00A86F",
"@ 	c #F1F9F6",
"# 	c #80D2B6",
"$ 	c #2EB684",
"% 	c #0BAB74",
"& 	c #2DB788",
"* 	c #7ED2B5",
"= 	c #EFF9F6",
"- 	c #B5CFC6",
"; 	c #18AC79",
"> 	c #1EB27C",
", 	c #D6F0E7",
"' 	c #23B17D",
") 	c #2CB482",
"! 	c #99C7B6",
"~ 	c #E7EFEC",
"{ 	c #F5FBF8",
"] 	c #BAE6D6",
"^ 	c #30B886",
"/ 	c #25B37F",
"( 	c #F5FBF9",
"_ 	c #87CFB7",
": 	c #29B582",
"< 	c #F4FAF8",
"[ 	c #EDEDED",
"} 	c #DDDDDD",
"| 	c #28B484",
"1 	c #91D9BF",
"2 	c #3DBB8D",
"3 	c #A8E0CD",
"4 	c #A8E0CC",
"5 	c #3FBD92",
"6 	c #11AD78",
"7 	c #E9F7F2",
"8 	c #E8F6F1",
"9 	c #13AD75",
"0 	c #03A970",
"a 	c #FBFDFC",
"b 	c #04A870",
"c 	c #10AC77",
"d 	c #33B186",
"e 	c #A7DFCB",
"f 	c #F2F2F2",
"g 	c #22AE7B",
"h 	c #CED4D2",
"i 	c #2AB683",
"j 	c #24B483",
"k 	c #32B88A",
"l 	c #BBE7D7",
"m 	c #1DB17B",
"n 	c #7ED2B3",
"o 	c #0AAA70",
"p 	c #2CB684",
"q 	c #06AA6E",
"r 	c #1BB17E",
"s 	c #47BF93",
"t 	c #F2FAF7",
"u 	c #19AF7C",
"v 	c #CBEDE1",
"w 	c #D4D8D7",
"x 	c #B7CBC4",
"y 	c #89C7B0",
"z 	c #16AE7A",
"A 	c #ECF8F4",
"B 	c #CFD5D2",
"C 	c #1EAE7D",
"D 	c #B8E6D5",
"E 	c #96C4B4",
"F 	c #2DB583",
"G 	c #F0F0F0",
"H 	c #F4F4F4",
"I 	c #D3D3D3",
"J 	c #EFEFEF",
"K 	c #FDFDFD",
"L 	c #F8F8F8",
"M 	c #D1D7D5",
"N 	c #2AB485",
"O 	c #81D3B5",
"P 	c #F3F3F3",
"Q 	c #89D1B8",
"R 	c #26B480",
"S 	c #CBD1CF",
"T 	c #D0D0D0",
"U 	c #CDD5D3",
"V 	c #25B382",
"W 	c #DEDEDE",
"X 	c #F6F6F6",
"Y 	c #90C6B2",
"Z 	c #37B98A",
"` 	c #3EBC8E",
" .	c #D4D4D4",
"..	c #FBFBFB",
"+.	c #EBF7F3",
"@.	c #12AE79",
"#.	c #FEFEFE",
"$.	c #FAFAFA",
"%.	c #EEEEEE",
"&.	c #90C6B4",
"*.	c #38BA8B",
"=.	c #DCDCDC",
"-.	c #29B384",
";.	c #81D3B7",
">.	c #27B383",
",.	c #CAD2CF",
"'.	c #F1F1F1",
").	c #D2D6D5",
"!.	c #86C4AD",
"~.	c #24B27E",
"{.	c #1DAD7C",
"].	c #2FB587",
"^.	c #99C5B5",
"/.	c #09AB74",
"(.	c #1CB07A",
"_.	c #4AC095",
":.	c #96DAC3",
". . . . . . . . . . . . . . . . . . . . . . . . . . . . . . . . ",
". . . . . . . . . . . . . . . . . . . . . . . . . . . . . . . . ",
". . . . . . . . . . . . . . . . . . . . . . . . . . . . . . . . ",
". . . . . . . . . . . . . . . . . . . . . . . . . . . . . . . . ",
". . + + + + + + + + + + + + . . @ # $ % % & * = . . . . . . . . ",
". . + + + + + + + + + + + + . - ; + + + + + + > , . . . . . . . ",
". . . . . . . + + . . . . . . ' + ) ! ~ { ] ^ + / ( . . . . . . ",
". . . . . . . + + . . . . . _ + : < [ } . . < | + 1 . . . . . . ",
". . . . . . . + + . . . . . 2 + 3 . . . . . . 4 + 5 . . . . . . ",
". . . . . . . + + . . . . . 6 + 7 . . . . . . 8 + 9 . . . . . . ",
". . . . . . . + + . . . . . 0 + a . . . . . . a + b . . . . . . ",
". . . . . . . + + . . . . . c + 7 . . . . . . 7 + 9 . . . . . . ",
". . . . . . . + + . . . . . d + e f . . . . . 4 + 5 . . . . . . ",
". . . . . . . + + . . . . . _ + g h . . . . { i + 1 . . . . . . ",
". . . . . . . + + . . . . . { j + k ] { ( l k + / ( . . . . . . ",
". . . . . . . + + . . . . . . , m + + + + + + m , . . . . . . . ",
". . . . . . . + + . . . . . . . = n & o o p * = . . . . . . . . ",
". . . . . . . . . . . . . . . . . . . . . . . . . . . . . . . . ",
". . . . + + + + q r s 1 t . . . . . . @ # $ % % & * = . . . . . ",
". . . . + + + + + + + + u v . . . . , > + + + + + + > , . . . . ",
". . . . + + . f w x y / + z A . . B C + ) D < { E F + C . . G . ",
". . . . + + H I J K L M N + O P . Q + R S P . . T U V + 1 . . . ",
". . . . + + W [ . . . X Y + Z } . ` + 3 [ } . . T P 4 + 5 . . . ",
". . . . + +  .... . . . +.+ 6 I . @.+ 7 ..I . . T K 8 + 9 . . . ",
". . . . + + T #.. . . . a + b T . b + a #.T . . T . a + b . . . ",
". . . . + + I ... . . . 7 + @.I . @.+ 7 $.I . . T . 7 + 9 . . . ",
". . . . + + } %.. . . L &.+ *.} . ` + 3 [ =.. . T . 4 + 5 . . . ",
". . . . + + P  .f K X M -.+ ;.f . Q + >.,.P . . T { i + 1 . . . ",
". . . . + + . '.).x !.~.+ z A . . h {.+ ].] { ( ^.k + / ( . . . ",
". . . . + + + + + + + + > v . . . . , m + + + + + + m , . . . . ",
". . . . + + + + /.(._.:.< . . . . . . = n & o o p * = . . . . . ",
". . . . . . . . . . . . . . . . . . . . . . . . . . . . . . . . "};
