/* XPM */
static const char * probtractcontext_xpm[] = {
"33 32 382 2",
"  	c None",
". 	c #F1F1F1",
"+ 	c #F0F0F0",
"@ 	c #EFEFEF",
"# 	c #EEEEEE",
"$ 	c #EBEBEB",
"% 	c #EAEAEA",
"& 	c #EDEDED",
"* 	c #E1E1E1",
"= 	c #E2E2E2",
"- 	c #ECECEC",
"; 	c #E7E7E7",
"> 	c #E3E3E3",
", 	c #DADADA",
"' 	c #D5D5D5",
") 	c #CCCCCC",
"! 	c #D8D8D8",
"~ 	c #B7B7B7",
"{ 	c #A7A7A7",
"] 	c #BDBDBD",
"^ 	c #B1B1B1",
"/ 	c #D3D3D3",
"( 	c #D0D0D0",
"_ 	c #B2AFAE",
": 	c #A3A3A3",
"< 	c #BFBEBD",
"[ 	c #D2D2D2",
"} 	c #B9B9B9",
"| 	c #B2B2B2",
"1 	c #B0B2B1",
"2 	c #ACACAC",
"3 	c #B4B4B4",
"4 	c #CECECE",
"5 	c #DEDEDE",
"6 	c #DFDFDF",
"7 	c #D9D9D9",
"8 	c #C5C5C5",
"9 	c #BBBCBD",
"0 	c #BDB8B3",
"a 	c #9A9A9A",
"b 	c #CAC6C4",
"c 	c #D6D6D6",
"d 	c #9F9F9F",
"e 	c #C1C1C1",
"f 	c #B3B3B3",
"g 	c #A6A6A6",
"h 	c #ABABAB",
"i 	c #BEBEBE",
"j 	c #BBBBBB",
"k 	c #C6C6C6",
"l 	c #C8C8C8",
"m 	c #CBCBCB",
"n 	c #B8B8B8",
"o 	c #D4D4D4",
"p 	c #C6C8C7",
"q 	c #AEACAA",
"r 	c #ADABAC",
"s 	c #DFDCD9",
"t 	c #C9C8C7",
"u 	c #C0C0C0",
"v 	c #979593",
"w 	c #BDBCBB",
"x 	c #CACACA",
"y 	c #BFBFBF",
"z 	c #A4A4A4",
"A 	c #C3C3C3",
"B 	c #A9A9A9",
"C 	c #DBDBDB",
"D 	c #CFCFCF",
"E 	c #AAAAAA",
"F 	c #ACA8A6",
"G 	c #B5B3B1",
"H 	c #C7C7C7",
"I 	c #AFAFAF",
"J 	c #969696",
"K 	c #C2C2C2",
"L 	c #A2A2A2",
"M 	c #A9A8A7",
"N 	c #A8A7A6",
"O 	c #CCCACA",
"P 	c #C2C0C0",
"Q 	c #AEAEAE",
"R 	c #999999",
"S 	c #A5A5A5",
"T 	c #B0B0B0",
"U 	c #E4E4E4",
"V 	c #A19D9B",
"W 	c #D9D7D7",
"X 	c #CDCDCD",
"Y 	c #D7D7D7",
"Z 	c #CFCECD",
"` 	c #B5B4B3",
" .	c #C0BFBE",
"..	c #B3B0AF",
"+.	c #989898",
"@.	c #C4C4C4",
"#.	c #CCCDCE",
"$.	c #BAABA2",
"%.	c #D2CFCE",
"&.	c #B3B4B5",
"*.	c #B1B0AF",
"=.	c #B0AEAC",
"-.	c #ABA19D",
";.	c #A6A7A8",
">.	c #8E8E8E",
",.	c #9C9C9C",
"'.	c #8B8B8B",
").	c #BABBBC",
"!.	c #D0C4BC",
"~.	c #B9B7B7",
"{.	c #BABABA",
"].	c #ADADAD",
"^.	c #A0A0A0",
"/.	c #878787",
"(.	c #8F8F8F",
"_.	c #DDDDDD",
":.	c #CFCDCE",
"<.	c #CFC4C1",
"[.	c #BEBCBD",
"}.	c #ACA9A8",
"|.	c #B6B5B4",
"1.	c #A8A8A8",
"2.	c #C9C9C9",
"3.	c #D5D7D7",
"4.	c #AFA59F",
"5.	c #D7D0CD",
"6.	c #D3CECD",
"7.	c #D7CDC9",
"8.	c #C8C5C4",
"9.	c #C4BDB8",
"0.	c #B39D8B",
"a.	c #B3A297",
"b.	c #B1B2B3",
"c.	c #838383",
"d.	c #BCBCBC",
"e.	c #CECED0",
"f.	c #D4CBC8",
"g.	c #C4AEA4",
"h.	c #D6B7A4",
"i.	c #C7B3A5",
"j.	c #C9C0B9",
"k.	c #CAC1BC",
"l.	c #C3BEB9",
"m.	c #C3C2C1",
"n.	c #C5BAAD",
"o.	c #B8A89A",
"p.	c #B1B3B5",
"q.	c #B0A49E",
"r.	c #B39B8B",
"s.	c #A7A39F",
"t.	c #9B9B9B",
"u.	c #949494",
"v.	c #898989",
"w.	c #E8E8E8",
"x.	c #CAB6AC",
"y.	c #C3A899",
"z.	c #C6AFA4",
"A.	c #D3A78D",
"B.	c #C39B81",
"C.	c #C8AC90",
"D.	c #DCB49A",
"E.	c #DEB28E",
"F.	c #D6BEAA",
"G.	c #CEBAA4",
"H.	c #CBAE8F",
"I.	c #BFB5AD",
"J.	c #BEBFC0",
"K.	c #BCB3AE",
"L.	c #B7A79D",
"M.	c #B2ACA8",
"N.	c #A4A3A2",
"O.	c #CDCBCC",
"P.	c #CBB2A7",
"Q.	c #C59B87",
"R.	c #C6AB96",
"S.	c #D0BEB0",
"T.	c #C6B6B0",
"U.	c #C9C4BD",
"V.	c #D8B8A6",
"W.	c #E4B89E",
"X.	c #D4B59A",
"Y.	c #DBBFA1",
"Z.	c #C1BEBD",
"`.	c #C0C1C2",
" +	c #AEABA8",
".+	c #C2BAB6",
"++	c #BDB6B1",
"@+	c #B9AEA5",
"#+	c #A5A3A1",
"$+	c #8C8C8C",
"%+	c #D8DADA",
"&+	c #C7BFBB",
"*+	c #C7A493",
"=+	c #CC9780",
"-+	c #BEA494",
";+	c #D2C9C4",
">+	c #CAADA0",
",+	c #D2CDCC",
"'+	c #C6A290",
")+	c #B4AEAC",
"!+	c #C8CCCE",
"~+	c #CCD1D6",
"{+	c #C7C0BD",
"]+	c #C5B6AD",
"^+	c #C2BDBA",
"/+	c #C9B4AB",
"(+	c #A79B95",
"_+	c #B5B5B5",
":+	c #D6D8D8",
"<+	c #D2CDCA",
"[+	c #BC9486",
"}+	c #B06A52",
"|+	c #C6937C",
"1+	c #CDA68F",
"2+	c #DFB299",
"3+	c #CD9C87",
"4+	c #D6A38A",
"5+	c #CF8263",
"6+	c #9C8376",
"7+	c #BAB7B4",
"8+	c #D0B2A6",
"9+	c #CCBEB8",
"0+	c #CACBCC",
"a+	c #C1BCB9",
"b+	c #B79B8F",
"c+	c #C9AA99",
"d+	c #B99685",
"e+	c #97837B",
"f+	c #AAA9A8",
"g+	c #AEB0AF",
"h+	c #E0E0E0",
"i+	c #DCDCDC",
"j+	c #D7D7D9",
"k+	c #E0CEC6",
"l+	c #D4AF9E",
"m+	c #AE6C5C",
"n+	c #B15137",
"o+	c #CC8B68",
"p+	c #CCAC96",
"q+	c #D79D81",
"r+	c #E39B77",
"s+	c #E8996E",
"t+	c #D5663F",
"u+	c #8C5042",
"v+	c #C2937E",
"w+	c #C58F75",
"x+	c #B0A098",
"y+	c #D1D6D9",
"z+	c #D0D2D2",
"A+	c #D4CFCE",
"B+	c #BF825D",
"C+	c #B0785A",
"D+	c #A29088",
"E+	c #A9ABAA",
"F+	c #9D9D9D",
"G+	c #CFD1D1",
"H+	c #DED8D4",
"I+	c #D3B5A5",
"J+	c #AD614F",
"K+	c #AF4B33",
"L+	c #C06B4E",
"M+	c #D96E49",
"N+	c #E85A34",
"O+	c #C84D34",
"P+	c #A34D39",
"Q+	c #A7482F",
"R+	c #954633",
"S+	c #AD6349",
"T+	c #CF8F6F",
"U+	c #986A5A",
"V+	c #BF9987",
"W+	c #BEB5B0",
"X+	c #BAB8B6",
"Y+	c #AF8777",
"Z+	c #B88A74",
"`+	c #AFA297",
" @	c #919191",
".@	c #DED4D2",
"+@	c #CCA79A",
"@@	c #A05E4C",
"#@	c #A63E2A",
"$@	c #B6412E",
"%@	c #C84526",
"&@	c #D14423",
"*@	c #B4412E",
"=@	c #97432F",
"-@	c #AC3F2A",
";@	c #A0432E",
">@	c #904534",
",@	c #CE937C",
"'@	c #CCBBB2",
")@	c #E1B09D",
"!@	c #DA876A",
"~@	c #AD6D59",
"{@	c #B49C96",
"]@	c #CAC8C9",
"^@	c #D3CECB",
"/@	c #DDBBA9",
"(@	c #CD8A73",
"_@	c #AC5544",
":@	c #A24330",
"<@	c #A04732",
"[@	c #B76049",
"}@	c #C4745C",
"|@	c #B0543E",
"1@	c #A94531",
"2@	c #A74231",
"3@	c #BF452D",
"4@	c #B63F2C",
"5@	c #7D4639",
"6@	c #DBCCC3",
"7@	c #DDDDDF",
"8@	c #CAC8C6",
"9@	c #CAC4C0",
"0@	c #CCC8C6",
"a@	c #CE9F8C",
"b@	c #C8755C",
"c@	c #CD8E75",
"d@	c #B5664D",
"e@	c #B15843",
"f@	c #BE6D54",
"g@	c #CBB1A7",
"h@	c #D19C8B",
"i@	c #AE5442",
"j@	c #C14C35",
"k@	c #994433",
"l@	c #974737",
"m@	c #9C6050",
"n@	c #DCD9D8",
"o@	c #B6B6B6",
"p@	c #959595",
"q@	c #D1D1D1",
"r@	c #D9D1CD",
"s@	c #E0C2B2",
"t@	c #CFA38D",
"u@	c #BC6A54",
"v@	c #BE7860",
"w@	c #C89D88",
"x@	c #D3C8C3",
"y@	c #D4D6D4",
"z@	c #C6A99E",
"A@	c #D1B7A9",
"B@	c #C18A75",
"C@	c #D3A289",
"D@	c #C5A695",
"E@	c #D7D9D9",
"F@	c #D5CCC9",
"G@	c #CB9787",
"H@	c #B5715F",
"I@	c #B38D7D",
"J@	c #C4A596",
"K@	c #D1C1BB",
"L@	c #D8D8DA",
"M@	c #E1DED9",
"N@	c #DAC2B0",
"O@	c #CEB2A6",
"P@	c #C6B8B0",
"Q@	c #C8BFBC",
"R@	c #A1A1A1",
"S@	c #DED9D8",
"T@	c #D4D9DC",
"U@	c #D6D6D4",
"V@	c #D6D1CE",
"W@	c #CCBDB6",
"X@	c #D9D2D1",
"Y@	c #DBDBD9",
"Z@	c #D8D5D4",
"`@	c #DADFE0",
" #	c #D5CBC7",
".#	c #DDE0E1",
"+#	c #D4D0CE",
"@#	c #D4D2D4",
"##	c #DEE0E0",
"$#	c #DBDBDD",
"%#	c #DEDEDC",
"&#	c #E7E7E5",
"*#	c #E2DDDC",
"=#	c #D9DBDB",
"-#	c #CDCCCB",
";#	c #DAD7D6",
">#	c #E5E5E5",
",#	c #858585",
". . . . . . . . + . . . . + + + + + + + + + . + + . . . . . . . . ",
". . . . . . . + . + @ # # $ % & % * * * = % - . . . . + . . . . . ",
". . . . . . + . # ; > , ' ) ) ! ! ~ { ] ^ ] ] - . . . . + . . . . ",
". . . . + + . . = / ' ( _ : < [ } | ] 1 : 2 3 4 5 * % . . + . . . ",
". . . + . . - 6 6 7 8 9 0 a b c d e f d g h i j } k l , . . + . . ",
". . + . . $ 6 m n 4 o p q r s t u ! ] v w x ~ d y k z a A & . + . ",
". + + . + ! ~ 2 B x C ! z } D d ) ] E F G | | ~ H I J d B 6 + . . ",
". . . & , 8 E j i B H K L D 2 2 y M N O P a J ~ ] Q R } S T - . + ",
". . + U e e H l 4 ] I { V W X ~ Y Z ` [  ...z I e I B | +.R ! + . ",
"+ . # ! D k D } @.Y ' #.$.%.&.Q , X *.4 =.-.;.f ~ >.E ,.'.S 2 & . ",
". + ; } u 4 e 4 H H 4 ).!.~.I [ / } f o {.u m T E ].{.^./.(.>.$ . ",
". + _.x 4 u Q 8 / ) 4  .:.x <.4 [ k ( y 2 [.}.|.8 A Q } +./.2 - . ",
". @ l 1.| 2.( ( H ! 3.4.5.6.7.[ l D ~ ] 8.9.0.a.b.2 L /.c.: k Y + ",
". # K d.4 u ( ) e.%.f.g.h.i.j.k.l.@.m.n.o.p.q.r.s.^.t.u.v.h 3 8 @ ",
"+ w.{ n ] u X H X x.y.z.A.B.C.D.E.F.G.H.I.J.K.L.M.N.+.(.>.2 K | ; ",
"+ = y x } 8 ( ( O.P.Q.R.S.T.U.V.W.X.Y.Z.`.2  +.+++@+#+$+,.@.8 a , ",
"+ _.3 @.~ 2.5 %+&+*+=+-+;+>+,+'+)+!+~+] u x {+]+^+/+(+,._+{.| ,.! ",
"+ * ^ l A / :+<+[+}+|+1+2+3+4+5+6+7+8+9+e.0+a+b+c+d+e+f+g+S a a C ",
"+ h+@.2.i+j+k+l+m+n+o+p+q+r+s+t+u+v+w+x+y+z+A+'+B+C+D+E+F+R J a 7 ",
"+ $ 8 X D G+H+I+J+K+L+M+N+O+P+Q+R+S+T+U+V+W+X+Y+Z+`+M I v. @B +.Y ",
". # y ] e G+.@+@@@#@$@%@&@*@=@-@;@>@,@'@)@!@~@{@]@u _.d._+2 1.d.# ",
". & T 4 ^@/@(@_@:@<@[@}@|@1@2@3@4@5@6@7@x 8@9@p _+H A ^ l ^.,.j + ",
". @ 4 o 0@a@b@c@d@e@f@g@h@i@j@k@l@m@n@! l 8 u ] ~ o@Q x E p@t.q@+ ",
". & d.Y [ r@s@t@u@v@w@x@y@z@A@B@C@D@E@h+X k ) e _+T { ^.: p@R i++ ",
". @ o 4 Z G+F@G@H@I@J@K@L@M@N@O@P@Q@i+[ m X 2.] j f R@: 1.a /.6 + ",
". + 6 d.c S@z+T@U@V@W@X@Y@U@Z@`@ #.#6 o 4 4 8 l K T 3 T 2 ^ o + . ",
"+ . & x +#@#X / 5 _.##_.4 q@$#_.j+%#/ ! c ! 8 j i j 2 p@'.m . . + ",
"+ . + &#*#=#4 ( o Y , ! 4 4 o / q@-#j 3 T ].Q : Q ^ n _+K $ . + . ",
". + . . . & x 2 T _+x 4 X G+;#C ) o@t.R p@R : j k ( U % . . + + . ",
". . . + . + % Y ] d./ c [ ; & # % ' L p@d a y - - @ . . . + + . . ",
". . . . + . . + - - # # # + . . . @ >#T ,#2 = . . . . + . . . . . ",
". . . . . + + . . . . . . . + + . . + @ # @ + . + . . . . . . . . "};
