/* XPM */
static const char * datacreatorpoints_xpm[] = {
"32 32 4 1",
" 	c None",
".	c #AAA900",
"+	c #000000",
"@	c #4444FF",
" ...   ...   ...   ...   ...   .",
"..... ..... ..... ..... ..... ..",
"..+.. ++++. .@++++@@@+@ .++++ ..",
"..+..++...@@@++@@@@@@+@@++... ..",
" .+. + .@@+@@+@.  +.@+@@+@@. + .",
"  +  +@@@@+@@+    +  + @+@@  +  ",
" .+. +@@@@+  +..  +..+  +@@. + .",
"..+.@@+@@++ ..+..++..+. .+@.++..",
"..+.@@++++. ..++++...+. .++++ ..",
"...@@@@@@.. ..... ..... .@... ..",
" ..@@@@@@.   ...   ...   ...   .",
"   ++++@   ++++    ++++   +   ++",
" .++@@@@..++ ...  ++..   .+. ++.",
"..+@@@@+..+ ...+. +....+..+..+..",
"..+@@@@+..+ ...+. +....+..+..+..",
"..+@@@@+..+ ...+. +....+..+..+..",
" .@+@@++.. + .++   +..++ .+.  +.",
"  @++++@   ++++    ++++   +   ++",
" .@@@@@@@.   ...   ...   ...   .",
"...@@@@@@.. ..... ..... ..... ..",
"..+@@+@@@++++...+ ..++++....++++",
"..+@@+@@++. ....+ .++.. ...++ ..",
" .+.@+@@+@   +..+  +..  +..+   .",
"  +  +@@+@@  +  +  +    +  +    ",
" .+. +@@+@@@@+..+  +..  +..+   .",
"..+..+@@@+@@++..+ ..+..++@@.+ .+",
"..+..+..@++++@@@+@@@++++@@..++++",
"..... ....@@@@@@@@@@@@@@@.... ..",
" ...   ...   @@@@@@@@@   ...   .",
"  +   ++++    ++++   +  +   ++++",
" .+. ++...   ++.   ..+  +..++  .",
"..+..+....+ .+... +..+. +..+. .."};
