/* XPM */
static const char * datacreator_xpm[] = {
"32 32 201 2",
"  	c None",
". 	c #000000",
"+ 	c #4444FF",
"@ 	c #20173E",
"# 	c #211B44",
"$ 	c #222044",
"% 	c #120B25",
"& 	c #433173",
"* 	c #604BA6",
"= 	c #7766DA",
"- 	c #6E67DA",
"; 	c #6A6AD9",
"> 	c #625CAF",
", 	c #6957D9",
"' 	c #7964D8",
") 	c #7363D8",
"! 	c #6B63D8",
"~ 	c #6C6AD9",
"{ 	c #7B75DD",
"] 	c #857DDF",
"^ 	c #5155FB",
"/ 	c #6F8ED5",
"( 	c #5463DA",
"_ 	c #5855D9",
": 	c #716BD6",
"< 	c #6E66D4",
"[ 	c #6B66D3",
"} 	c #6F6FD1",
"| 	c #706DCD",
"1 	c #807DD6",
"2 	c #8D90DF",
"3 	c #8B9CD9",
"4 	c #113E25",
"5 	c #179538",
"6 	c #4AA78B",
"7 	c #5D91C0",
"8 	c #4C63D6",
"9 	c #4D5DD7",
"0 	c #697AD1",
"a 	c #6C75CE",
"b 	c #6F74C8",
"c 	c #7177B8",
"d 	c #56589A",
"e 	c #7377C0",
"f 	c #8A95DB",
"g 	c #8AA1CE",
"h 	c #82ABBC",
"i 	c #6B998C",
"j 	c #82BC98",
"k 	c #020802",
"l 	c #243643",
"m 	c #3D6D6B",
"n 	c #39D06C",
"o 	c #49C18B",
"p 	c #5697B8",
"q 	c #4661D1",
"r 	c #4A66D0",
"s 	c #6387BF",
"t 	c #6382B6",
"u 	c #6275A6",
"v 	c #5D6486",
"w 	c #373B55",
"x 	c #6C70A7",
"y 	c #8B98D0",
"z 	c #8AA6C1",
"A 	c #7EB2AF",
"B 	c #78BB9D",
"C 	c #76C08C",
"D 	c #6FC77B",
"E 	c #316834",
"F 	c #122F14",
"G 	c #486A76",
"H 	c #65A4A9",
"I 	c #45C87B",
"J 	c #45C581",
"K 	c #50A1AB",
"L 	c #4169CB",
"M 	c #4460CC",
"N 	c #5780B0",
"O 	c #4E7A90",
"P 	c #3C5E6A",
"Q 	c #333748",
"R 	c #4D5163",
"S 	c #75809E",
"T 	c #9199B8",
"U 	c #9F98AA",
"V 	c #95A697",
"W 	c #82B785",
"X 	c #6DC476",
"Y 	c #67C96B",
"Z 	c #4A944A",
"` 	c #659697",
" .	c #67AE9E",
"..	c #49C877",
"+.	c #39D06A",
"@.	c #3CBB8E",
"#.	c #3B84BD",
"$.	c #3B50D1",
"%.	c #3D59BA",
"&.	c #325084",
"*.	c #2E404D",
"=.	c #4D4460",
"-.	c #847B8F",
";.	c #8C989A",
">.	c #9D9891",
",.	c #C46B72",
"'.	c #BF7665",
").	c #9FA163",
"!.	c #76C062",
"~.	c #68C75E",
"{.	c #509945",
"].	c #77B1A8",
"^.	c #72AF99",
"/.	c #6EB98B",
"(.	c #56C673",
"_.	c #3BD260",
":.	c #39CB70",
"<.	c #50A4A0",
"[.	c #4E67C6",
"}.	c #2B36C1",
"|.	c #252188",
"1.	c #4C3D71",
"2.	c #7F5F9C",
"3.	c #B27891",
"4.	c #B5877D",
"5.	c #BA7D5F",
"6.	c #D63C2E",
"7.	c #C36540",
"8.	c #9F9B50",
"9.	c #78BC57",
"0.	c #66C353",
"a.	c #4C963C",
"b.	c #71BA8C",
"c.	c #76BD83",
"d.	c #7AC174",
"e.	c #68BD77",
"f.	c #4BC76D",
"g.	c #47CF62",
"h.	c #64C174",
"i.	c #6293AA",
"j.	c #3249BC",
"k.	c #38298E",
"l.	c #754F91",
"m.	c #AF68BC",
"n.	c #D23E62",
"o.	c #D3492B",
"p.	c #CD5C32",
"q.	c #CA6036",
"r.	c #9B9257",
"s.	c #7AAD5D",
"t.	c #6DBB57",
"u.	c #61C153",
"v.	c #5CC252",
"w.	c #1E481A",
"x.	c #70C373",
"y.	c #76BF76",
"z.	c #7AB27A",
"A.	c #6CA882",
"B.	c #51B974",
"C.	c #38CB5C",
"D.	c #3AD261",
"E.	c #38A8A1",
"F.	c #2351BB",
"G.	c #461E83",
"H.	c #92344D",
"I.	c #CE4967",
"J.	c #D24845",
"K.	c #B08644",
"L.	c #8CAC52",
"M.	c #88AD56",
"N.	c #73AF5F",
"O.	c #60B15A",
"P.	c #5FBE59",
"Q.	c #66C35F",
"R.	c #69C463",
"S.	c #224720",
"T.	c #2294B3",
"U.	c #1D44BD",
"V.	c #3A3182",
"W.	c #785F4C",
"X.	c #AA8770",
"Y.	c #A88977",
"Z.	c #979D6F",
"`.	c #22A3A8",
" +	c #1D77A8",
".+	c #225776",
"++	c #47715A",
"@+	c #71AD8E",
"#+	c #72AD98",
"$+	c #73CD64",
"%+	c #51D559",
"&+	c #21D154",
"*+	c #1EC055",
"=+	c #138139",
"-+	c #182C22",
";+	c #1A2F25",
">+	c #192D27",
",+	c #0E1C18",
"'+	c #11862C",
")+	c #0E1C09",
"!+	c #03350D",
"                                                                ",
"                                                                ",
"    .       . . . .       + . . . . + + + . +     . . . .       ",
"    .     . .       + + + . . + + + + + + . + + . .             ",
"    .     .     + + . + + . +       .   + . + + . + +     .     ",
"    .     . + + + + . + + .         .     .   + . + +     .     ",
"    .     . + + + + .     .         .     .     . + +     .     ",
"    .   + + . + + . .       .     @ #     $       . +   . .     ",
"    .   + + . . . .         . % & * = - ; >       . . . .       ",
"      + + + + + +               , ' ) ! ~ { ]     ^             ",
"      + + + + + +           / ( _ : < [ } | 1 2 3               ",
"      . . . . +       4 5 6 7 8 9 0 a b c d e f g h i j     k . ",
"    . . + + + +     l m n o p q r s t u v w x y z A B C D E F   ",
"    . + + + + .     G H I J K L M N O P Q R S T U V W X Y Z     ",
"    . + + + + .     `  ...+.@.#.$.%.&.*.=.-.;.>.,.'.).!.~.{.    ",
"    . + + + + .   ].^./.(._.:.<.[.}.|.1.2.3.4.5.6.7.8.9.0.a.    ",
"    + . + + . .   b.c.d.e.f.g.h.i.j.k.l.m.n.o.p.q.r.s.t.u.v.w.  ",
"    + . . . . +   x.y.z.A.B.C.D.E.F.G.H.I.J.K.L.M.N.O.P.Q.R.S.. ",
"    + + + + + + +               T.U.V.W.X.Y.Z.                  ",
"      + + + + + +               `. +.+++@+#+                    ",
"    . + + . + + + . . . .   $+%+&+*+=+-+;+>+,+.         . . . . ",
"    . + + . + + . .             '+    . .             . .       ",
"    .   + . + + . +       )+    !+    .         .     .         ",
"    .     . + + . + +     .     .     .         .     .         ",
"    .     . + + . + + + + .     .     .         .     .         ",
"    .     . + + + . + + . .     .       .     . . + +   .     . ",
"    .     .     + . . . . + + + . + + + . . . . + +     . . . . ",
"                    + + + + + + + + + + + + + + +               ",
"                          + + + + + + + + +                     ",
"    .       . . . .         . . . .       .     .       . . . . ",
"    .     . .             . .             .     .     . .       ",
"    .     .         .     .         .     .     .     .         "};
